<?xml version="1.0" encoding="UTF-8"?>
<svg width="130px" height="50px" viewBox="0 0 130 50" version="1.1" xmlns="http://www.w3.org/2000/svg" xmlns:xlink="http://www.w3.org/1999/xlink">
    <!-- Generator: Sketch 49.3 (51167) - http://www.bohemiancoding.com/sketch -->
    <title>CLICKON</title>
    <desc>Created with Sketch.</desc>
    <defs>
        <polygon id="path-1" points="0.0116809006 0.0234853559 4.4931122 0.0234853559 4.4931122 16.4857867 0.0116809006 16.4857867"></polygon>
        <polygon id="path-3" points="0.0575399625 0.0774485446 11.4154867 0.0774485446 11.4154867 15.3190661 0.0575399625 15.3190661"></polygon>
        <polygon id="path-5" points="0.0191445807 0.0770826459 9.89466417 0.0770826459 9.89466417 14.296264 0.0191445807 14.296264"></polygon>
        <polygon id="path-7" points="0.0637128975 0.0773362072 14.9306971 0.0773362072 14.9306971 14.7159533 0.0637128975 14.7159533"></polygon>
        <polygon id="path-9" points="0.0517427696 0.0380728688 14.965398 0.0380728688 14.965398 14.8606371 0.0517427696 14.8606371"></polygon>
        <polygon id="path-11" points="1.9242796e-05 0.0378967727 14.8670034 0.0378967727 14.8670034 12.9750042 1.9242796e-05 12.9750042"></polygon>
    </defs>
    <g id="CLICKON" stroke="none" stroke-width="1" fill="none" fill-rule="evenodd">
        <g id="Page-1" transform="translate(1.000000, 9.000000)">
            <path d="M95.7748228,16.6459144 L95.7748228,6.21756143 C95.7748228,4.93081425 96.5580241,3.97641858 98.0022444,3.97641858 C99.3630183,3.97641858 100.228895,4.93081425 100.228895,6.21756143 L100.228895,16.6459144 L105.425891,16.6459144 L105.425891,6.88168276 C105.425891,3.85193219 104.147407,0.241245136 98.702963,0.241245136 L97.2595136,0.241245136 C91.8148764,0.241245136 90.5365854,3.85193219 90.5365854,6.88168276 L90.5365854,16.6459144 L95.7748228,16.6459144 Z" id="Fill-1" fill="#FEFEFE"></path>
            <g id="Group-5" transform="translate(123.437148, 0.482490)">
                <mask id="mask-2" fill="white">
                    <use xlink:href="#path-1"></use>
                </mask>
                <g id="Clip-4"></g>
                <polygon id="Fill-3" fill="#FEFEFE" mask="url(#mask-2)" points="4.49326589 16.4857867 4.49326589 1.89628696 4.49326589 0.0234853559 0.0116809006 0.0234853559 0.0116809006 1.81288284 0.0116809006 16.4857867"></polygon>
            </g>
            <polygon id="Fill-6" fill="#FEFEFE" points="115.618835 16.6459793 115.618835 8.70988311 116.073757 8.70988311 118.312616 17.0077821 121.636023 16.6459793 117.361801 0.482490272 111.069418 0.482490272 111.069418 16.6459793"></polygon>
            <polygon id="Fill-8" fill="#FEFEFE" points="79.7478115 14.9571984 86.3339587 0.844357977 80.5306181 0.844357977 74.8067542 14.9571984"></polygon>
            <g id="Group-12" transform="translate(74.806754, 15.560311)">
                <mask id="mask-4" fill="white">
                    <use xlink:href="#path-3"></use>
                </mask>
                <g id="Clip-11"></g>
                <path d="M4.98407505,0.0774485446 L0.0575399625,0.0774485446 L5.64381538,15.3191437 L11.4154867,15.3191437 C11.144021,14.6134971 4.98407505,0.0774485446 4.98407505,0.0774485446" id="Fill-10" fill="#FEFEFE" mask="url(#mask-4)"></path>
            </g>
            <polygon id="Fill-13" fill="#FEFEFE" points="111.069418 16.1634241 111.069418 28.577231 111.069418 30.3968872 115.63227 30.3968872 115.63227 28.7014521 115.63227 16.1634241"></polygon>
            <g id="Group-17" transform="translate(118.033771, 16.163424)">
                <mask id="mask-6" fill="white">
                    <use xlink:href="#path-5"></use>
                </mask>
                <g id="Clip-16"></g>
                <polygon id="Fill-15" fill="#FEFEFE" mask="url(#mask-6)" points="5.37012279 0.0770826459 5.37012279 6.0761737 4.91294167 6.0761737 3.45003966 0.0770826459 0.0191445807 0.0770826459 3.61277829 14.296264 9.89479994 14.296264 9.89479994 12.4371325 9.89479994 0.0770826459"></polygon>
            </g>
            <g id="Group-20" transform="translate(90.476548, 16.163424)">
                <mask id="mask-8" fill="white">
                    <use xlink:href="#path-7"></use>
                </mask>
                <g id="Clip-19"></g>
                <path d="M9.74149228,0.0773362072 L9.74149228,8.74832443 C9.74149228,10.0332595 8.87691346,10.9863111 7.5179872,10.9863111 C6.0761245,10.9863111 5.29409727,10.0332595 5.29409727,8.74832443 L5.29409727,0.0773362072 L0.0637128975,0.0773362072 L0.0637128975,8.04428224 C0.0637128975,11.0277481 1.21635638,14.7160308 6.77656227,14.7160308 L8.21784769,14.7160308 C13.65413,14.7160308 14.9306971,11.0693788 14.9306971,8.08552564 L14.9306971,0.0773362072 L9.74149228,0.0773362072 Z" id="Fill-18" fill="#FEFEFE" mask="url(#mask-8)"></path>
            </g>
            <polygon id="Fill-21" fill="#FEFEFE" points="25.8161351 14.1128405 25.8161351 0.482490272 20.532833 0.482490272 20.532833 13.9544204"></polygon>
            <g id="Group-25" transform="translate(49.110694, 0.000000)">
                <mask id="mask-10" fill="white">
                    <use xlink:href="#path-9"></use>
                </mask>
                <g id="Clip-24"></g>
                <path d="M5.38116429,14.8606371 L5.38116429,6.02481781 C5.38116429,4.73577925 6.20714838,3.77968405 7.48810898,3.77968405 C8.76868352,3.77968405 9.63655556,4.73577925 9.63655556,6.02481781 L9.63655556,8.94729898 L9.63655556,10.7345871 L14.965398,10.7345871 L14.965398,8.94729898 L14.965398,6.68992752 C14.965398,3.65478173 13.6850165,0.0378591945 8.23147536,0.0378591945 L6.7856654,0.0378591945 C1.33212427,0.0378591945 0.0517427696,3.65478173 0.0517427696,6.68992752 L0.0517427696,14.6978562 L5.38116429,14.8606371 Z" id="Fill-23" fill="#FEFEFE" mask="url(#mask-10)"></path>
            </g>
            <g id="Group-28">
                <mask id="mask-12" fill="white">
                    <use xlink:href="#path-11"></use>
                </mask>
                <g id="Clip-27"></g>
                <path d="M1.9242796e-05,12.8168432 L1.9242796e-05,6.65900435 C1.9242796e-05,3.63789683 1.2763939,0.0377034218 6.71286862,0.0377034218 L8.15415404,0.0377034218 C13.5906288,0.0377034218 14.8670034,3.63789683 14.8670034,6.65900435 L14.8670034,7.93898718 C14.8670034,9.1387294 14.7690576,9.71820199 14.7690576,9.71820199 L9.50942416,9.71820199 C9.50942416,9.71820199 9.55464473,9.1387294 9.55464473,7.93898718 L9.55464473,5.99697093 C9.55464473,4.71389448 8.68948862,3.76222145 7.41311397,3.76222145 C6.13635445,3.76222145 5.31276278,4.71389448 5.31276278,5.99697093 L5.31276278,12.9750042 L1.9242796e-05,12.8168432 Z" id="Fill-26" fill="#FEFEFE" mask="url(#mask-12)"></path>
            </g>
            <path d="M0,17.4701599 L0,24.098801 C0,27.0769926 1.15264348,30.7587549 6.71284938,30.7587549 L8.1541348,30.7587549 C13.5906095,30.7587549 14.8669842,27.1185496 14.8669842,24.1401648 L14.8669842,21.5071867 C14.8669842,20.97371 14.8893058,20.183546 14.8893058,20.183546 L9.57348343,20.1763943 C9.57348343,20.1763943 9.55462549,21.1322067 9.55462549,21.5071867 L9.55462549,24.8017918 C9.55462549,26.0842621 8.68946938,27.0356288 7.41309472,27.0356288 C6.13633521,27.0356288 5.31274354,26.0842621 5.31274354,24.8017918 L5.31274354,17.3696498" id="Fill-29" fill="#FEFEFE"></path>
            <polygon id="Fill-31" fill="#FEFEFE" points="73.9662289 14.8365759 73.9662289 2.62802565 73.9662289 0.844357977 68.6829268 0.844357977 68.6829268 2.71096891 68.6829268 14.8365759"></polygon>
            <polygon id="Fill-33" fill="#FEFEFE" points="43.467167 14.5953307 43.467167 2.22992762 43.467167 0.482490272 38.1838649 0.482490272 38.1838649 2.31312041 38.1838649 14.4324439"></polygon>
            <polygon id="Fill-35" fill="#FEFEFE" points="33.6210131 26.6722676 25.8422199 26.6722676 25.8422199 16.4046693 20.532833 16.5564538 20.532833 30.3968872 33.6210131 30.3968872"></polygon>
            <polygon id="Fill-37" fill="#FEFEFE" points="68.6829268 15.6809339 68.6829268 28.9368265 68.6829268 30.7587549 73.9662289 30.7587549 73.9662289 29.0198173 73.9662289 15.6809339"></polygon>
            <path d="M64.120075,20.2188807 L58.8000018,20.2188807 L58.8000018,22.0001797 L58.8000018,24.9128679 C58.8000018,26.197587 57.9333653,27.1504784 56.6550908,27.1504784 C55.3762381,27.1504784 54.5516133,26.197587 54.5516133,24.9128679 L54.5516133,15.6809339 L49.2307692,15.832715 L49.2307692,24.2087504 C49.2307692,27.1919084 50.3853211,30.8793774 55.9538031,30.8793774 L57.3970411,30.8793774 C62.8416078,30.8793774 64.120075,27.2333385 64.120075,24.2501805 L64.120075,22.0001797 L64.120075,20.2188807 Z" id="Fill-39" fill="#FEFEFE"></path>
            <polygon id="Fill-41" fill="#FEFEFE" points="38.1838649 16.0737375 38.1838649 30.3968872 43.467167 30.3968872 43.467167 15.922179"></polygon>
        </g>
    </g>
</svg>